G04 #@! TF.GenerationSoftware,KiCad,Pcbnew,5.0.0-rc2-unknown-fc71fc6~65~ubuntu16.04.1*
G04 #@! TF.CreationDate,2018-06-08T12:28:42+02:00*
G04 #@! TF.ProjectId,mmdvm_hs-hat,6D6D64766D5F68732D6861742E6B6963,1.7*
G04 #@! TF.SameCoordinates,Original*
G04 #@! TF.FileFunction,Paste,Top*
G04 #@! TF.FilePolarity,Positive*
%FSLAX46Y46*%
G04 Gerber Fmt 4.6, Leading zero omitted, Abs format (unit mm)*
G04 Created by KiCad (PCBNEW 5.0.0-rc2-unknown-fc71fc6~65~ubuntu16.04.1) date Fri Jun  8 12:28:42 2018*
%MOMM*%
%LPD*%
G01*
G04 APERTURE LIST*
%ADD10R,1.400000X1.200000*%
%ADD11R,0.575000X0.650000*%
%ADD12R,0.650000X0.575000*%
%ADD13R,1.360000X1.400000*%
%ADD14R,0.700000X0.250000*%
%ADD15R,0.250000X0.700000*%
%ADD16R,0.772500X0.772500*%
%ADD17R,0.250000X1.300000*%
%ADD18R,1.300000X0.250000*%
%ADD19R,1.900000X2.400000*%
%ADD20R,4.500000X1.300000*%
G04 APERTURE END LIST*
D10*
G04 #@! TO.C,X1*
X188023680Y-115136560D03*
X185823680Y-115136560D03*
X185823680Y-116836560D03*
X188023680Y-116836560D03*
G04 #@! TD*
D11*
G04 #@! TO.C,C3*
X172987500Y-119800000D03*
X172212500Y-119800000D03*
G04 #@! TD*
G04 #@! TO.C,C4*
X172212500Y-123650000D03*
X172987500Y-123650000D03*
G04 #@! TD*
G04 #@! TO.C,C5*
X172987500Y-124850000D03*
X172212500Y-124850000D03*
G04 #@! TD*
G04 #@! TO.C,C2*
X172212500Y-121000000D03*
X172987500Y-121000000D03*
G04 #@! TD*
G04 #@! TO.C,C31*
X165612500Y-116000000D03*
X166387500Y-116000000D03*
G04 #@! TD*
D12*
G04 #@! TO.C,C1*
X168750000Y-123762500D03*
X168750000Y-124537500D03*
G04 #@! TD*
D11*
G04 #@! TO.C,C6*
X172212500Y-127400000D03*
X172987500Y-127400000D03*
G04 #@! TD*
G04 #@! TO.C,C7*
X172987500Y-130000000D03*
X172212500Y-130000000D03*
G04 #@! TD*
G04 #@! TO.C,C8*
X174885200Y-119809260D03*
X175660200Y-119809260D03*
G04 #@! TD*
G04 #@! TO.C,C9*
X175659280Y-121044920D03*
X174884280Y-121044920D03*
G04 #@! TD*
G04 #@! TO.C,C10*
X177587500Y-130000000D03*
X176812500Y-130000000D03*
G04 #@! TD*
G04 #@! TO.C,C11*
X177494080Y-119481600D03*
X176719080Y-119481600D03*
G04 #@! TD*
D12*
G04 #@! TO.C,C13*
X179902410Y-116004880D03*
X179902410Y-116779880D03*
G04 #@! TD*
G04 #@! TO.C,C14*
X181104820Y-116779880D03*
X181104820Y-116004880D03*
G04 #@! TD*
G04 #@! TO.C,C15*
X182307230Y-116779880D03*
X182307230Y-116004880D03*
G04 #@! TD*
D11*
G04 #@! TO.C,C29*
X165612500Y-113000000D03*
X166387500Y-113000000D03*
G04 #@! TD*
G04 #@! TO.C,C28*
X164362500Y-123600000D03*
X165137500Y-123600000D03*
G04 #@! TD*
D12*
G04 #@! TO.C,C27*
X166500000Y-126137500D03*
X166500000Y-125362500D03*
G04 #@! TD*
D11*
G04 #@! TO.C,C26*
X195937900Y-118424960D03*
X196712900Y-118424960D03*
G04 #@! TD*
G04 #@! TO.C,C25*
X206053840Y-120329960D03*
X205278840Y-120329960D03*
G04 #@! TD*
G04 #@! TO.C,C24*
X192995400Y-128437640D03*
X193770400Y-128437640D03*
G04 #@! TD*
D12*
G04 #@! TO.C,C23*
X204000000Y-133887500D03*
X204000000Y-133112500D03*
G04 #@! TD*
D11*
G04 #@! TO.C,C22*
X186212500Y-124350780D03*
X186987500Y-124350780D03*
G04 #@! TD*
D12*
G04 #@! TO.C,C21*
X195000000Y-133887500D03*
X195000000Y-133112500D03*
G04 #@! TD*
D11*
G04 #@! TO.C,C20*
X186212500Y-125550000D03*
X186987500Y-125550000D03*
G04 #@! TD*
D12*
G04 #@! TO.C,C19*
X190850000Y-116312500D03*
X190850000Y-117087500D03*
G04 #@! TD*
D11*
G04 #@! TO.C,C18*
X186212500Y-119050000D03*
X186987500Y-119050000D03*
G04 #@! TD*
D12*
G04 #@! TO.C,C17*
X183509640Y-116779880D03*
X183509640Y-116004880D03*
G04 #@! TD*
G04 #@! TO.C,C12*
X178700000Y-116004880D03*
X178700000Y-116779880D03*
G04 #@! TD*
G04 #@! TO.C,C16*
X205500000Y-133112500D03*
X205500000Y-133887500D03*
G04 #@! TD*
D13*
G04 #@! TO.C,C30*
X169120000Y-115250000D03*
X171880000Y-115250000D03*
G04 #@! TD*
D11*
G04 #@! TO.C,L6*
X179487500Y-120200000D03*
X178712500Y-120200000D03*
G04 #@! TD*
G04 #@! TO.C,L5*
X165612500Y-114500000D03*
X166387500Y-114500000D03*
G04 #@! TD*
G04 #@! TO.C,L4*
X172985580Y-126065280D03*
X172210580Y-126065280D03*
G04 #@! TD*
G04 #@! TO.C,L3*
X172987500Y-122350000D03*
X172212500Y-122350000D03*
G04 #@! TD*
G04 #@! TO.C,L2*
X170687500Y-123600000D03*
X169912500Y-123600000D03*
G04 #@! TD*
G04 #@! TO.C,L1*
X166762500Y-123600000D03*
X167537500Y-123600000D03*
G04 #@! TD*
G04 #@! TO.C,D9*
X213687500Y-122200000D03*
X212912500Y-122200000D03*
G04 #@! TD*
G04 #@! TO.C,D7*
X212912500Y-119800000D03*
X213687500Y-119800000D03*
G04 #@! TD*
G04 #@! TO.C,D6*
X216187500Y-118600000D03*
X215412500Y-118600000D03*
G04 #@! TD*
G04 #@! TO.C,D5*
X212912500Y-117400000D03*
X213687500Y-117400000D03*
G04 #@! TD*
G04 #@! TO.C,D4*
X216187500Y-116200000D03*
X215412500Y-116200000D03*
G04 #@! TD*
G04 #@! TO.C,D3*
X212912500Y-115000000D03*
X213687500Y-115000000D03*
G04 #@! TD*
G04 #@! TO.C,D2*
X213687500Y-112600000D03*
X212912500Y-112600000D03*
G04 #@! TD*
G04 #@! TO.C,D8*
X215412500Y-121000000D03*
X216187500Y-121000000D03*
G04 #@! TD*
G04 #@! TO.C,D1*
X216187500Y-113750000D03*
X215412500Y-113750000D03*
G04 #@! TD*
G04 #@! TO.C,R9*
X186987500Y-121600000D03*
X186212500Y-121600000D03*
G04 #@! TD*
D12*
G04 #@! TO.C,R7*
X207200000Y-133112500D03*
X207200000Y-133887500D03*
G04 #@! TD*
D11*
G04 #@! TO.C,R10*
X186987500Y-122900000D03*
X186212500Y-122900000D03*
G04 #@! TD*
G04 #@! TO.C,R12*
X209912500Y-115000000D03*
X210687500Y-115000000D03*
G04 #@! TD*
G04 #@! TO.C,R8*
X186987500Y-120300000D03*
X186212500Y-120300000D03*
G04 #@! TD*
D12*
G04 #@! TO.C,R6*
X179902410Y-118312500D03*
X179902410Y-119087500D03*
G04 #@! TD*
G04 #@! TO.C,R5*
X178700000Y-119087500D03*
X178700000Y-118312500D03*
G04 #@! TD*
D11*
G04 #@! TO.C,R4*
X175664980Y-118280180D03*
X176439980Y-118280180D03*
G04 #@! TD*
G04 #@! TO.C,R3*
X174512500Y-130000000D03*
X175287500Y-130000000D03*
G04 #@! TD*
G04 #@! TO.C,R11*
X209912500Y-112600000D03*
X210687500Y-112600000D03*
G04 #@! TD*
G04 #@! TO.C,R13*
X210687500Y-116200000D03*
X209912500Y-116200000D03*
G04 #@! TD*
G04 #@! TO.C,R14*
X209912500Y-117400000D03*
X210687500Y-117400000D03*
G04 #@! TD*
G04 #@! TO.C,R15*
X210687500Y-118600000D03*
X209912500Y-118600000D03*
G04 #@! TD*
G04 #@! TO.C,R16*
X209912500Y-119800000D03*
X210687500Y-119800000D03*
G04 #@! TD*
G04 #@! TO.C,R17*
X210687500Y-121000000D03*
X209912500Y-121000000D03*
G04 #@! TD*
G04 #@! TO.C,R18*
X210687500Y-113800000D03*
X209912500Y-113800000D03*
G04 #@! TD*
G04 #@! TO.C,R19*
X210687500Y-122200000D03*
X209912500Y-122200000D03*
G04 #@! TD*
G04 #@! TO.C,R2*
X172212500Y-128700000D03*
X172987500Y-128700000D03*
G04 #@! TD*
G04 #@! TO.C,R1*
X193219220Y-126044960D03*
X192444220Y-126044960D03*
G04 #@! TD*
D14*
G04 #@! TO.C,U1*
X177393750Y-122143750D03*
X177393750Y-122643750D03*
X177393750Y-123143750D03*
X177393750Y-123643750D03*
X177393750Y-124143750D03*
X177393750Y-124643750D03*
X177393750Y-125143750D03*
X177393750Y-125643750D03*
X177393750Y-126143750D03*
X177393750Y-126643750D03*
X177393750Y-127143750D03*
X177393750Y-127643750D03*
D15*
X178043750Y-128293750D03*
X178543750Y-128293750D03*
X179043750Y-128293750D03*
X179543750Y-128293750D03*
X180043750Y-128293750D03*
X180543750Y-128293750D03*
X181043750Y-128293750D03*
X181543750Y-128293750D03*
X182043750Y-128293750D03*
X182543750Y-128293750D03*
X183043750Y-128293750D03*
X183543750Y-128293750D03*
D14*
X184193750Y-127643750D03*
X184193750Y-127143750D03*
X184193750Y-126643750D03*
X184193750Y-126143750D03*
X184193750Y-125643750D03*
X184193750Y-125143750D03*
X184193750Y-124643750D03*
X184193750Y-124143750D03*
X184193750Y-123643750D03*
X184193750Y-123143750D03*
X184193750Y-122643750D03*
X184193750Y-122143750D03*
D15*
X183543750Y-121493750D03*
X183043750Y-121493750D03*
X182543750Y-121493750D03*
X182043750Y-121493750D03*
X181543750Y-121493750D03*
X181043750Y-121493750D03*
X180543750Y-121493750D03*
X180043750Y-121493750D03*
X179543750Y-121493750D03*
X179043750Y-121493750D03*
X178543750Y-121493750D03*
X178043750Y-121493750D03*
D16*
X182725000Y-126825000D03*
X182725000Y-125537500D03*
X182725000Y-124250000D03*
X182725000Y-122962500D03*
X181437500Y-126825000D03*
X181437500Y-125537500D03*
X181437500Y-124250000D03*
X181437500Y-122962500D03*
X180150000Y-126825000D03*
X180150000Y-125537500D03*
X180150000Y-124250000D03*
X180150000Y-122962500D03*
X178862500Y-126825000D03*
X178862500Y-125537500D03*
X178862500Y-124250000D03*
X178862500Y-122962500D03*
G04 #@! TD*
D17*
G04 #@! TO.C,U2*
X197250000Y-129350000D03*
X197750000Y-129350000D03*
X198250000Y-129350000D03*
X198750000Y-129350000D03*
X199250000Y-129350000D03*
X199750000Y-129350000D03*
X200250000Y-129350000D03*
X200750000Y-129350000D03*
X201250000Y-129350000D03*
X201750000Y-129350000D03*
X202250000Y-129350000D03*
X202750000Y-129350000D03*
D18*
X204350000Y-127750000D03*
X204350000Y-127250000D03*
X204350000Y-126750000D03*
X204350000Y-126250000D03*
X204350000Y-125750000D03*
X204350000Y-125250000D03*
X204350000Y-124750000D03*
X204350000Y-124250000D03*
X204350000Y-123750000D03*
X204350000Y-123250000D03*
X204350000Y-122750000D03*
X204350000Y-122250000D03*
D17*
X202750000Y-120650000D03*
X202250000Y-120650000D03*
X201750000Y-120650000D03*
X201250000Y-120650000D03*
X200750000Y-120650000D03*
X200250000Y-120650000D03*
X199750000Y-120650000D03*
X199250000Y-120650000D03*
X198750000Y-120650000D03*
X198250000Y-120650000D03*
X197750000Y-120650000D03*
X197250000Y-120650000D03*
D18*
X195650000Y-122250000D03*
X195650000Y-122750000D03*
X195650000Y-123250000D03*
X195650000Y-123750000D03*
X195650000Y-124250000D03*
X195650000Y-124750000D03*
X195650000Y-125250000D03*
X195650000Y-125750000D03*
X195650000Y-126250000D03*
X195650000Y-126750000D03*
X195650000Y-127250000D03*
X195650000Y-127750000D03*
G04 #@! TD*
D19*
G04 #@! TO.C,Y1*
X201500000Y-133000000D03*
X197400000Y-133000000D03*
G04 #@! TD*
D20*
G04 #@! TO.C,AE1*
X158500000Y-126600000D03*
X158500000Y-114900000D03*
G04 #@! TD*
M02*
