G04 #@! TF.GenerationSoftware,KiCad,Pcbnew,5.0.0-rc2-unknown-fc71fc6~65~ubuntu16.04.1*
G04 #@! TF.CreationDate,2018-06-08T12:28:42+02:00*
G04 #@! TF.ProjectId,mmdvm_hs-hat,6D6D64766D5F68732D6861742E6B6963,1.7*
G04 #@! TF.SameCoordinates,Original*
G04 #@! TF.FileFunction,Soldermask,Bot*
G04 #@! TF.FilePolarity,Negative*
%FSLAX46Y46*%
G04 Gerber Fmt 4.6, Leading zero omitted, Abs format (unit mm)*
G04 Created by KiCad (PCBNEW 5.0.0-rc2-unknown-fc71fc6~65~ubuntu16.04.1) date Fri Jun  8 12:28:42 2018*
%MOMM*%
%LPD*%
G01*
G04 APERTURE LIST*
%ADD10O,2.100000X2.100000*%
%ADD11R,2.100000X2.100000*%
%ADD12R,0.975000X1.050000*%
%ADD13C,2.400000*%
%ADD14C,2.600000*%
%ADD15R,2.178000X2.178000*%
%ADD16C,2.178000*%
%ADD17C,3.148280*%
G04 APERTURE END LIST*
D10*
G04 #@! TO.C,P2*
X218038680Y-128045720D03*
X215498680Y-128045720D03*
X212958680Y-128045720D03*
D11*
X210418680Y-128045720D03*
G04 #@! TD*
D12*
G04 #@! TO.C,R20*
X178912500Y-113100000D03*
X179687500Y-113100000D03*
G04 #@! TD*
G04 #@! TO.C,R21*
X176947980Y-113100000D03*
X176172980Y-113100000D03*
G04 #@! TD*
G04 #@! TO.C,R22*
X176172980Y-114157760D03*
X176947980Y-114157760D03*
G04 #@! TD*
D11*
G04 #@! TO.C,P1*
X210418680Y-124543820D03*
D10*
X212958680Y-124543820D03*
X215498680Y-124543820D03*
X218038680Y-124543820D03*
G04 #@! TD*
D11*
G04 #@! TO.C,P4*
X197596760Y-114503200D03*
D10*
X200136760Y-114503200D03*
X202676760Y-114503200D03*
X205216760Y-114503200D03*
G04 #@! TD*
D13*
G04 #@! TO.C,P3*
X166500000Y-130800000D03*
D14*
X169040000Y-133340000D03*
X169040000Y-128260000D03*
X163960000Y-128260000D03*
X163960000Y-133340000D03*
G04 #@! TD*
D15*
G04 #@! TO.C,PI1*
X163830000Y-110507121D03*
D16*
X163830000Y-107967121D03*
X166370000Y-110507121D03*
X166370000Y-107967121D03*
X168910000Y-110507121D03*
X168910000Y-107967121D03*
X171450000Y-110507121D03*
X171450000Y-107967121D03*
X173990000Y-110507121D03*
X173990000Y-107967121D03*
X176530000Y-110507121D03*
X176530000Y-107967121D03*
X179070000Y-110507121D03*
X179070000Y-107967121D03*
X181610000Y-110507121D03*
X181610000Y-107967121D03*
X184150000Y-110507121D03*
X184150000Y-107967121D03*
X186690000Y-110507121D03*
X186690000Y-107967121D03*
X189230000Y-110507121D03*
X189230000Y-107967121D03*
X191770000Y-110507121D03*
X191770000Y-107967121D03*
X194310000Y-110507121D03*
X194310000Y-107967121D03*
X196850000Y-110507121D03*
X196850000Y-107967121D03*
X199390000Y-110507121D03*
X199390000Y-107967121D03*
X201930000Y-110507121D03*
X201930000Y-107967121D03*
X204470000Y-110507121D03*
X204470000Y-107967121D03*
X207010000Y-110507121D03*
X207010000Y-107967121D03*
X209550000Y-110507121D03*
X209550000Y-107967121D03*
X212090000Y-110507121D03*
X212090000Y-107967121D03*
D17*
X158958280Y-132239361D03*
X158958280Y-109237121D03*
X216959180Y-132239361D03*
X216959180Y-109237121D03*
G04 #@! TD*
M02*
