M48
;DRILL file {KiCad 5.0.0-rc2-unknown-fc71fc6~65~ubuntu16.04.1} date Fri Jun  8 12:28:33 2018
;FORMAT={3:3/ absolute / metric / suppress leading zeros}
FMAT,2
METRIC,TZ
T1C0.300
T2C0.400
T3C0.998
T4C1.000
T5C1.500
T6C1.700
T7C2.748
%
G90
G05
M71
T1
X162258Y-130800
X162273Y-123411
X162274Y-106500
X162274Y-108500
X162274Y-110500
X162274Y-112500
X162274Y-114500
X162274Y-116500
X162274Y-118500
X162274Y-120500
X162274Y-122500
X162274Y-134500
X164005Y-125550
X164046Y-122365
X164531Y-124706
X165103Y-106500
X165270Y-126535
X165463Y-125585
X165532Y-124630
X166000Y-122500
X166502Y-134498
X167432Y-124630
X167574Y-125547
X167600Y-113000
X167752Y-126512
X168750Y-122500
X170050Y-124656
X170795Y-130800
X171050Y-122500
X171143Y-124633
X171145Y-126187
X171250Y-134750
X172570Y-111763
X172964Y-118214
X174147Y-124384
X174584Y-115418
X175047Y-122286
X175364Y-111763
X175849Y-127650
X177250Y-116250
X179000Y-123000
X179000Y-124200
X179000Y-125400
X179000Y-126600
X180200Y-123000
X180200Y-124200
X180200Y-125400
X180200Y-126600
X181000Y-130000
X181400Y-123000
X181400Y-124200
X181400Y-125400
X181400Y-126600
X182600Y-123000
X182600Y-124200
X182600Y-125400
X182600Y-126600
X184500Y-120250
X184602Y-129946
X185250Y-118250
X187655Y-113602
X187856Y-124849
X188747Y-127678
X189602Y-129946
X190721Y-114407
X191501Y-128702
X191859Y-118961
X193721Y-114407
X193827Y-117196
X194993Y-135009
X194996Y-131651
X195499Y-128702
X195842Y-120462
X197500Y-123000
X197505Y-126997
X198115Y-117770
X198125Y-106500
X199918Y-124696
X200665Y-106500
X201381Y-117124
X202494Y-126505
X202500Y-123000
X203139Y-112375
X203203Y-106500
X204750Y-135000
X205750Y-106500
X206009Y-123551
X206380Y-130810
X207107Y-112664
X207607Y-125451
X209405Y-130797
X210795Y-111630
X211767Y-123015
X213677Y-111364
X213750Y-134750
X214838Y-112598
X214889Y-106500
X215986Y-111364
X216243Y-122715
X216792Y-129510
X216797Y-126667
X217927Y-112956
X218745Y-115418
X218745Y-118418
X218745Y-121418
X218862Y-134526
X219009Y-107285
X219616Y-111361
X219616Y-126665
X219616Y-129515
T2
X169123Y-116738
X174300Y-128400
X174308Y-113900
X174341Y-113101
X177386Y-118450
X177391Y-120470
X180400Y-120150
X181262Y-114230
X181530Y-113473
X182890Y-112248
X183223Y-118250
X187490Y-127498
X188300Y-118720
X188500Y-123622
X188750Y-126238
X188925Y-119380
X189750Y-116350
X191567Y-126060
X192024Y-122072
X192126Y-121260
X193878Y-120053
X194264Y-129597
X198603Y-118923
X199878Y-127229
X204700Y-118825
X206493Y-126535
X206497Y-127335
X206888Y-123122
X206893Y-120990
X207098Y-128702
X207374Y-120342
X207650Y-115291
X207660Y-116175
X208825Y-121975
X212077Y-130594
X213467Y-109235
T3
X163830Y-107967
X163830Y-110507
X166370Y-107967
X166370Y-110507
X168910Y-107967
X168910Y-110507
X171450Y-107967
X171450Y-110507
X173990Y-107967
X173990Y-110507
X176530Y-107967
X176530Y-110507
X179070Y-107967
X179070Y-110507
X181610Y-107967
X181610Y-110507
X184150Y-107967
X184150Y-110507
X186690Y-107967
X186690Y-110507
X189230Y-107967
X189230Y-110507
X191770Y-107967
X191770Y-110507
X194310Y-107967
X194310Y-110507
X196850Y-107967
X196850Y-110507
X199390Y-107967
X199390Y-110507
X201930Y-107967
X201930Y-110507
X204470Y-107967
X204470Y-110507
X207010Y-107967
X207010Y-110507
X209550Y-107967
X209550Y-110507
X212090Y-107967
X212090Y-110507
T4
X210419Y-128046
X212959Y-128046
X215499Y-128046
X218039Y-128046
X197597Y-114503
X200137Y-114503
X202677Y-114503
X205217Y-114503
X210419Y-124544
X212959Y-124544
X215499Y-124544
X218039Y-124544
T5
X166500Y-130800
T6
X163960Y-128260
X163960Y-133340
X169040Y-128260
X169040Y-133340
T7
X158958Y-109237
X158958Y-132239
X216959Y-109237
X216959Y-132239
T0
M30
